HIERARCHY
ROOT Hips
{
	OFFSET 0.00000 0.00000 0.00000
	CHANNELS 6 Xposition Yposition Zposition Zrotation Yrotation Xrotation 
	JOINT LHipJoint
	{
		OFFSET 0 0 0
		CHANNELS 3 Zrotation Yrotation Xrotation
		JOINT LeftHip
		{
			OFFSET 1.84395 -1.68683 0.74144
			CHANNELS 3 Zrotation Yrotation Xrotation
			JOINT LeftKnee
			{
				OFFSET 2.27037 -6.23779 0.00000
				CHANNELS 3 Zrotation Yrotation Xrotation
				JOINT LeftAnkle
				{
					OFFSET 2.56918 -7.05877 0.00000
					CHANNELS 3 Zrotation Yrotation Xrotation
					JOINT LeftToe
					{
						OFFSET 0.22276 -0.61202 1.71784
						CHANNELS 3 Zrotation Yrotation Xrotation
						End Site
						{
							OFFSET 0.00000 -0.00000 0.91613
						}
					}
				}
			}
		}
	}
	JOINT RHipJoint
	{
		OFFSET 0 0 0
		CHANNELS 3 Zrotation Yrotation Xrotation
		JOINT RightHip
		{
			OFFSET -1.76833 -1.68684 0.74144
			CHANNELS 3 Zrotation Yrotation Xrotation
			JOINT RightKnee
			{
				OFFSET -2.49360 -6.85110 0.00000
				CHANNELS 3 Zrotation Yrotation Xrotation
				JOINT RightAnkle
				{
					OFFSET -2.55538 -7.02085 0.00000
					CHANNELS 3 Zrotation Yrotation Xrotation
					JOINT RightToe
					{
						OFFSET -0.21516 -0.59115 1.68050
						CHANNELS 3 Zrotation Yrotation Xrotation
						End Site
						{
							OFFSET -0.00000 -0.00000 0.89604
						}
					}
				}
			}
		}
	}
	JOINT lowerback
	{
		OFFSET 0 0 0
		CHANNELS 3 Zrotation Yrotation Xrotation
		JOINT Chest
		{
			OFFSET 0.06382 1.72312 -0.19613
			CHANNELS 3 Zrotation Yrotation Xrotation
			JOINT Chest2
			{
				OFFSET -0.00055 1.73507 0.23859
				CHANNELS 3 Zrotation Yrotation Xrotation
				JOINT lowerneck
				{
					OFFSET 0 0 0
					CHANNELS 3 Zrotation Yrotation Xrotation
					JOINT Neck
					{
						OFFSET 0.03638 1.65562 0.09633
						CHANNELS 3 Zrotation Yrotation Xrotation
						JOINT Head
						{
							OFFSET 0.06388 1.62807 -0.32386
							CHANNELS 3 Zrotation Yrotation Xrotation
							End Site
							{
								OFFSET 0.00995 1.67644 -0.12021
							}
						}
					}
				}
				JOINT LeftCollar
				{
					OFFSET 0 0 0
					CHANNELS 3 Zrotation Yrotation Xrotation
					JOINT LeftShoulder
					{
						OFFSET 3.09648 1.42991 0.28122
CHANNELS 3 Zrotation Xrotation Yrotation
						JOINT LeftElbow
						{
OFFSET 0 -5.118780 -0.000000
CHANNELS 3 Zrotation Xrotation Yrotation
							JOINT LeftWrist
							{
OFFSET 0 -3.599710 0.000000
CHANNELS 3 Zrotation Xrotation Yrotation
								JOINT lhand
								{
									OFFSET 0 0 0
CHANNELS 3 Zrotation Xrotation Yrotation
									JOINT LFingers
									{
OFFSET 0 -0.628770 0.000000
CHANNELS 3 Zrotation Xrotation Yrotation
										End Site
										{
OFFSET 0 -0.506930 0.000000
										}
									}
								}
								JOINT LThumb
								{
OFFSET 0 0.000000 0.000000
CHANNELS 3 Zrotation Xrotation Yrotation
									End Site
									{
OFFSET 0 -0.514670 0.514670
									}
								}
							}
						}
					}
				}
				JOINT RightCollar
				{
					OFFSET 0 0 0
					CHANNELS 3 Zrotation Yrotation Xrotation
					JOINT RightShoulder
					{
						OFFSET -3.33565 1.14597 0.05047
CHANNELS 3 Zrotation Xrotation Yrotation
						JOINT RightElbow
						{
OFFSET 0 -5.490200 0.000000
CHANNELS 3 Zrotation Xrotation Yrotation
							JOINT RightWrist
							{
OFFSET 0 -3.206590 -0.000000
CHANNELS 3 Zrotation Xrotation Yrotation
								JOINT rhand
								{
									OFFSET 0 0 0
CHANNELS 3 Zrotation Xrotation Yrotation
									JOINT RFingers
									{
OFFSET 0 -0.691880 0.000000
CHANNELS 3 Zrotation Xrotation Yrotation
										End Site
										{
OFFSET 0 -0.557810 0.000000
										}
									}
								}
								JOINT RThumb
								{
OFFSET 0 0.000000 0.000000
CHANNELS 3 Zrotation Xrotation Yrotation
									End Site
									{
OFFSET 0 -0.566330 0.566330
									}
								}
							}
						}
					}
				}
			}
		}
	}
}
MOTION
Frames: 7
Frame Time: 0.008333333333333333
0.796600 17.412900 9.470000 -9.873100 2.852800 10.798000 0.000000 0.000000 0.000000 -16.348800 -42.650100 23.363400 0.070100 -1.708100 -4.699500 -6.041300 42.290500 -37.568300 0.068800 1.692200 4.655600 0.000000 0.000000 0.000000 28.264100 23.812600 5.425000 -0.007700 -0.567800 1.560400 1.375200 -24.216200 -23.579500 -0.018700 -0.883700 2.429000 6.404300 0.327500 0.050300 1.999500 1.062900 -10.993700 -1.509300 0.018700 -11.807800 -9.197200 -13.146400 0.798900 15.527400 -20.307600 15.714100 4.896000 -9.575900 7.226200 0.000000 -0.000000 0.000000 -1.788100 17.510100 -9.430500 13.877900 -22.560000 2.781100 18.739400 0.975800 4.712000 0.000000 0.000000 0.000000 -7.125000 0.000000 0.000000 -5.938600 25.004000 -2.886600 0.000000 -0.000000 0.000000 4.139700 14.200500 -3.631700 -14.148600 -22.946700 -2.885800 8.054000 32.640600 33.101700 0.000000 0.000000 0.000000 7.125000 0.000000 -0.000000 44.039700 57.353400 -15.292700
0.794757 17.410705 9.475089 -9.768190 2.785547 10.853512 0.000000 0.000000 0.000000 -16.691685 -42.933564 23.623676 0.068137 -1.684428 -4.634349 -6.000949 42.399406 -38.141385 0.073849 1.751450 4.819324 0.000000 0.000000 0.000000 28.141387 23.914254 5.440972 -0.007458 -0.557459 1.531774 1.369616 -24.216877 -23.643068 -0.026037 -1.025058 2.817925 6.031170 -0.216417 -0.026867 2.854596 0.348077 -10.595579 -0.314835 -0.226081 -11.349934 -10.730510 -12.777270 -1.216922 15.337182 -19.706577 16.620264 4.972576 -9.240152 7.930932 0.000000 0.000000 0.000000 -3.878952 16.453239 -6.181572 13.922794 -22.624235 2.798353 18.680952 1.294297 4.826825 0.000000 0.000000 0.000000 -7.125000 0.000000 0.000000 -5.978945 24.885330 -2.923040 0.000000 0.000000 0.000000 2.258345 13.062363 -1.586918 -13.895052 -22.584376 -2.787702 7.790858 32.641901 33.249645 0.000000 0.000000 0.000000 7.125000 0.000000 0.000000 43.952357 57.520983 -15.440239
0.775903 17.426110 9.512687 -9.286451 2.864710 11.609065 0.000000 0.000000 0.000000 -16.932990 -43.913798 23.281462 0.068403 -1.686935 -4.641198 -6.160292 42.899827 -38.837679 0.090698 1.942396 5.346520 0.000000 0.000000 0.000000 27.885526 25.988892 6.060443 -0.003452 -0.378308 1.039395 1.613236 -25.895518 -25.041649 -0.156718 -2.550383 7.029392 4.968355 -0.808785 -1.314144 3.609223 -0.571706 -10.340397 1.135882 -0.519145 -10.287162 -11.770374 -12.455071 -3.126952 14.989240 -19.069128 17.378338 4.962593 -8.893362 8.501504 0.000000 0.000000 0.000000 -5.666274 15.432918 -2.936701 13.904143 -22.597579 2.791217 18.700821 1.532822 5.947346 0.000000 0.000000 0.000000 -7.125000 0.000000 0.000000 -5.935295 23.709282 -3.063611 0.000000 0.000000 0.000000 0.365152 11.634550 1.151118 -13.449119 -21.941781 -2.618752 8.126642 29.699855 34.309451 0.000000 0.000000 0.000000 7.125000 0.000000 0.000000 45.364250 58.229837 -16.895631
0.773356 17.425873 9.516044 -9.266330 2.820683 11.542222 0.000000 0.000000 0.000000 -16.990064 -43.783949 23.328955 0.068063 -1.683483 -4.631761 -6.153455 42.866122 -38.769135 0.086449 1.896191 5.218855 0.000000 0.000000 0.000000 27.988573 26.169387 6.241832 -0.003900 -0.403893 1.109769 1.632425 -26.035425 -25.180949 -0.152256 -2.514029 6.928487 5.007852 -0.624493 -1.309446 3.385106 -0.336688 -10.355048 0.855847 -0.419432 -10.302567 -11.551082 -12.600107 -2.806461 15.143578 -19.325417 17.188328 4.965985 -9.013277 8.412818 0.000000 0.000000 0.000000 -5.175168 15.506152 -3.644579 13.904851 -22.598501 2.791492 18.873294 1.272227 5.953689 0.000000 0.000000 0.000000 -7.125000 0.000000 0.000000 -5.807504 23.696087 -2.998738 0.000000 0.000000 0.000000 0.742071 11.777494 0.728801 -13.480439 -21.987140 -2.630474 7.963169 29.543877 34.227018 0.000000 0.000000 0.000000 7.125000 0.000000 0.000000 45.128232 58.206047 -16.755482
0.771513 17.425503 9.519581 -9.318603 2.805900 11.531284 0.000000 0.000000 0.000000 -16.958016 -43.754232 23.391846 0.069200 -1.697381 -4.670049 -6.143883 42.863745 -38.813077 0.095433 1.992221 5.484025 0.000000 0.000000 0.000000 27.968779 25.856869 6.149478 -0.003006 -0.356263 0.978826 1.610424 -25.825597 -24.905063 -0.146845 -2.469487 6.805159 5.104338 -0.494803 -1.386510 3.251305 -0.173255 -10.355638 0.644908 -0.354221 -10.254682 -11.355851 -12.691959 -2.682295 15.180530 -19.476337 17.099653 4.936199 -9.079499 8.367259 0.000000 0.000000 0.000000 -4.826322 15.507733 -4.246446 13.871563 -22.550874 2.778698 18.910359 1.426551 5.738221 0.000000 0.000000 0.000000 -7.125000 0.000000 0.000000 -5.784679 23.920894 -2.956728 0.000000 0.000000 0.000000 1.065313 11.819701 0.162384 -13.456090 -21.951884 -2.621297 8.053099 29.633811 34.173782 0.000000 0.000000 0.000000 7.125000 0.000000 0.000000 45.152606 58.146858 -16.700081
0.767448 17.424227 9.522689 -9.432307 2.805144 11.510567 0.000000 0.000000 0.000000 -16.928487 -43.864488 23.584755 0.070405 -1.711741 -4.709550 -6.098945 42.884877 -39.117638 0.111827 2.155756 5.936287 0.000000 0.000000 0.000000 28.143754 25.870923 6.196330 -0.003121 -0.358372 0.984560 1.631380 -25.878408 -24.819974 -0.136605 -2.382033 6.562769 5.159842 -0.501959 -1.424386 3.305271 -0.180180 -10.336940 0.671318 -0.358764 -10.212284 -11.315835 -12.704005 -2.690455 15.106246 -19.474469 17.067696 4.905548 -9.082047 8.345439 0.000000 0.000000 0.000000 -4.841472 15.578222 -4.486238 13.908364 -22.603512 2.792811 18.861773 1.280457 5.787028 0.000000 0.000000 0.000000 -7.125000 0.000000 0.000000 -5.819607 23.871524 -2.981405 0.000000 0.000000 0.000000 1.161096 11.886842 -0.068275 -13.531462 -22.061041 -2.649616 8.204505 29.629577 34.152787 0.000000 0.000000 0.000000 7.125000 0.000000 0.000000 45.267217 58.097672 -16.698991
0.765919 17.421738 9.525660 -9.374778 2.787173 11.564216 0.000000 0.000000 0.000000 -17.010506 -43.922020 23.603064 0.070790 -1.716403 -4.722646 -6.173271 43.018276 -39.136419 0.102586 2.064979 5.685369 0.000000 0.000000 0.000000 28.016640 25.769131 6.084768 -0.003010 -0.355159 0.975751 1.603343 -25.746860 -24.789970 -0.134033 -2.359165 6.499420 5.078442 -0.508464 -1.553670 3.306059 -0.202100 -10.348544 0.716993 -0.361710 -10.146791 -11.368200 -12.692581 -2.613364 15.112050 -19.452307 17.013722 4.923841 -9.080519 8.316235 0.000000 0.000000 0.000000 -4.911727 15.628340 -4.328032 13.872705 -22.552392 2.779069 18.850632 1.409231 5.810030 0.000000 0.000000 0.000000 -7.125000 0.000000 0.000000 -5.827369 23.847725 -2.988651 0.000000 0.000000 0.000000 1.195391 11.838725 -0.281665 -13.445433 -21.936390 -2.617348 8.002452 29.915171 34.069693 0.000000 0.000000 0.000000 7.125000 0.000000 0.000000 44.996322 58.081817 -16.552052
